<svg xmlns="http://www.w3.org/2000/svg" id="Layer_2" data-name="Layer 2" viewBox="0 0 296.79 260.13">
  <defs>
    <style>
      .cls-1 {
        fill: none;
        stroke: #fff;
        stroke-miterlimit: 10;
        stroke-width: 4px;
      }
    </style>
  </defs>
  <path class="cls-1" d="M293.34,258.13H3.43L147.43,4.04l145.9,254.1ZM148.38,56.61,148.38,58.15c-12.75,0-23.09,10.34-23.09,23.09s10.34,23.09,23.09,23.09,23.09-10.34,23.09-23.09-10.34-23.09-23.09-23.09ZM193.38,258.13s-65.14-38.05-81.78-43.13c-16.63-5.08-38.54-11.05-41.46,13.46s36.44,29.67,36.44,29.67h86.79ZM196.62,258.13c14.6-2.71,35.05-22.56,27.3-38.05s-27.94-7.11-37.21-4.44c-9.27,2.67-84.7,42.49-84.7,42.49h94.6ZM148.38,117.75s-.14-.1-.41-.07c-3.2.28-19.05-2.53-30.43,7.98-12.48,11.52-14.95,24.48-15.52,26.95s-1.71,19.9-1.81,20.76-34.19,15.14-34.19,15.14c0,0-12.67,4.76-11.14,15.62s20.2,11.66,20.2,11.66l46.57-29.85.29-31.43s3.77,57.62-4.16,62.86l30.1,15.16.52-114.78ZM149.02,232.53l30.1-15.16c-7.93-5.24-4.16-62.86-4.16-62.86l.29,31.43,46.57,29.85s18.67-.8,20.2-11.66-11.14-15.62-11.14-15.62c0,0-34.1-14.29-34.19-15.14s-1.24-18.29-1.81-20.76-3.05-15.43-15.52-26.95c-11.38-10.51-27.23-7.7-30.43-7.98-.27-.02-.41.07-.41.07l.52,114.78ZM147.43,4.04L3.43,258.13h289.9L147.43,4.04ZM148.38,56.61,148.38,58.15c-12.75,0-23.09,10.34-23.09,23.09s10.34,23.09,23.09,23.09,23.09-10.34,23.09-23.09-10.34-23.09-23.09-23.09ZM193.38,258.13s-65.14-38.05-81.78-43.13c-16.63-5.08-38.54-11.05-41.46,13.46s36.44,29.67,36.44,29.67h86.79ZM196.62,258.13c14.6-2.71,35.05-22.56,27.3-38.05s-27.94-7.11-37.21-4.44c-9.27,2.67-84.7,42.49-84.7,42.49h94.6ZM148.38,117.75s-.14-.1-.41-.07c-3.2.28-19.05-2.53-30.43,7.98-12.48,11.52-14.95,24.48-15.52,26.95s-1.71,19.9-1.81,20.76-34.19,15.14-34.19,15.14c0,0-12.67,4.76-11.14,15.62s20.2,11.66,20.2,11.66l46.57-29.85.29-31.43s3.77,57.62-4.16,62.86l30.1,15.16.52-114.78ZM149.02,232.53l30.1-15.16c-7.93-5.24-4.16-62.86-4.16-62.86l.29,31.43,46.57,29.85s18.67-.8,20.2-11.66-11.14-15.62-11.14-15.62c0,0-34.1-14.29-34.19-15.14s-1.24-18.29-1.81-20.76-3.05-15.43-15.52-26.95c-11.38-10.51-27.23-7.7-30.43-7.98-.27-.02-.41.07-.41.07l.52,114.78ZM147.43,4.04l.95,54.12M147.43,4.04l.95,54.12M148.44,258.32l-.09-24.68M148.44,258.32l-.09-24.68"/>
</svg>